<svg xmlns="http://www.w3.org/2000/svg" version="1.1" xmlns:xlink="http://www.w3.org/1999/xlink" xmlns:svgjs="http://svgjs.dev/svgjs" width="1440" height="1000" preserveAspectRatio="none" viewBox="0 0 1440 1000"><g mask="url(&quot;#SvgjsMask1560&quot;)" fill="none"><rect width="1440" height="1000" x="0" y="0" fill="rgba(255, 255, 255, 1)"></rect><path d="M 526,-20.937855985479473 C 634.2,179.06 1095.8,579.06 1067,979.0621440145205 C 1038.2,1379.06 431.4,1974.87 382,1979.0621440145205 C 332.6,1983.25 732.4,1195.81 820,1000" stroke="rgba(221, 0, 0, 1)" stroke-width="2"></path><path d="M 1119,-352.7270319436657 C 1034.2,-152.73 691.8,247.27 695,647.2729680563343 C 698.2,1047.27 1171.4,1576.73 1135,1647.2729680563343 C 1098.6,1717.82 637.4,1129.45 513,1000" stroke="rgba(255, 204, 0, 1)" stroke-width="2"></path><path d="M 872,-373.5613685676267 C 768.4,-173.56 300.8,226.44 354,626.4386314323733 C 407.2,1026.44 1153.4,1551.73 1138,1626.4386314323733 C 1122.6,1701.15 449.2,1125.29 277,1000" stroke="rgba(0, 0, 0, 1)" stroke-width="2"></path></g><defs><mask id="SvgjsMask1560"><rect width="1440" height="1000" fill="#ffffff"></rect></mask></defs></svg>